<svg xmlns:xlink="http://www.w3.org/1999/xlink" id="Layer_1" data-name="Layer 1" xmlns="http://www.w3.org/2000/svg" viewBox="0 0 32 32" class="large" width="32"  height="32" ><rect x="16" y="8" width="12" height="16" rx="2" fill="#FFB961"></rect><path d="M5 9h7.43a1 1 0 011 1 1 1 0 01-1 1H5a1 1 0 01-1-1 1 1 0 011-1zm0 5h7.43a1 1 0 011 1 1 1 0 01-1 1H5a1 1 0 01-1-1 1 1 0 011-1zm0 5h4a1 1 0 011 1 1 1 0 01-1 1H5a1 1 0 01-1-1 1 1 0 011-1z" fill="#FFFFFF" opacity=".5" style="isolation: isolate;"></path></svg>