<svg xmlns:xlink="http://www.w3.org/1999/xlink" id="Layer_1" data-name="Layer 1" xmlns="http://www.w3.org/2000/svg" viewBox="0 0 32 32" class="large" width="32"  height="32" ><path d="M25.33 28H6.67A2.68 2.68 0 014 25.33V6.67A2.68 2.68 0 016.67 4h18.66A2.68 2.68 0 0128 6.67v18.66A2.68 2.68 0 0125.33 28z" fill="#FFB961"></path><path d="M10.8 20.76a1 1 0 00-1.6 0l-2.15 2.87a1 1 0 00.8 1.6h4.3a1 1 0 00.8-1.6z" fill="#FFFFFF"></path><path d="M19.17 16.1a1 1 0 00-1.58 0l-5.87 7.52a1 1 0 00.79 1.61h11.62a1 1 0 00.79-1.61zm-6.86-5.18A2.31 2.31 0 1110 8.62a2.31 2.31 0 012.31 2.3z" fill="#FFFFFF"></path></svg>