<svg xmlns:xlink="http://www.w3.org/1999/xlink" id="Layer_1" data-name="Layer 1" xmlns="http://www.w3.org/2000/svg" viewBox="0 0 32 32" class="large" width="32"  height="32" ><path d="M5 25.09V7.64a1.83 1.83 0 011.84-1.83h17.44z" fill="#07A35C" fill-rule="evenodd"></path><path d="M5 25.46v-.37L24.28 5.81h.37a1.86 1.86 0 011.3.53 1.88 1.88 0 01.54 1.3V8L7.2 27.29h-.36A1.84 1.84 0 015 25.46z" fill="#FFE32C" fill-rule="evenodd"></path><path d="M7.2 27.29l8.54-8.54 8.54 8.54z" fill="#6186C4" fill-rule="evenodd"></path><path d="M24.28 27.29l-8.67-8.67 2.21-2.2 8.67 8.67v.37a1.88 1.88 0 01-.54 1.3 1.86 1.86 0 01-1.3.53z" fill="#FFFFFF" fill-rule="evenodd"></path><path d="M26.49 25.09L18 16.55 26.49 8z" fill="#DCDADB" fill-rule="evenodd"></path><path d="M13.24 10.45h-2.88v1h1.71a1.88 1.88 0 01-.68.91 1.79 1.79 0 01-2.14-.07 1.8 1.8 0 01-.56-2.07 1.81 1.81 0 01.71-.86 1.85 1.85 0 011.1-.28 1.83 1.83 0 011 .44l.79-.78a2.86 2.86 0 00-1.8-.74 2.91 2.91 0 00-2.7 4.27 2.93 2.93 0 001.48 1.34 2.9 2.9 0 002 .06 2.91 2.91 0 002-3.18z" fill="#F6F6F6"></path><path d="M22.64 21.12a.33.33 0 01-.32-.3 12.72 12.72 0 00-2.12-5.92c-1.27-2.1-3.35-4.41-3.35-6.71a5.55 5.55 0 015.77-5.45 5.55 5.55 0 015.77 5.45c0 2.3-2.08 4.62-3.34 6.71A12.82 12.82 0 0023 20.82a.31.31 0 01-.36.3z" fill="#DE4231" fill-rule="evenodd"></path><path d="M22.63 10.24a2 2 0 10-2-2 2 2 0 002 2z" fill="#8E2F22"></path></svg>